<mxfile host="65bd71144e">
    <diagram id="FXVpZfX-Qx5WPStU4fCc" name="Page-1">
        <mxGraphModel dx="1014" dy="779" grid="1" gridSize="10" guides="1" tooltips="1" connect="1" arrows="1" fold="1" page="1" pageScale="1" pageWidth="1100" pageHeight="1700" math="0" shadow="0">
            <root>
                <mxCell id="0"/>
                <mxCell id="1" parent="0"/>
                <mxCell id="2" value="Yes" style="rounded=0;whiteSpace=wrap;html=1;fillColor=#60a917;fontColor=#ffffff;strokeColor=#2D7600;fontSize=30;" parent="1" vertex="1">
                    <mxGeometry width="240" height="80" as="geometry"/>
                </mxCell>
                <mxCell id="3" value="Maybe" style="rounded=0;whiteSpace=wrap;html=1;fillColor=#647687;fontColor=#ffffff;strokeColor=#314354;fontSize=30;" parent="1" vertex="1">
                    <mxGeometry x="240" width="240" height="80" as="geometry"/>
                </mxCell>
                <mxCell id="4" value="No" style="rounded=0;whiteSpace=wrap;html=1;fillColor=#e51400;fontColor=#ffffff;strokeColor=#B20000;fontSize=30;" parent="1" vertex="1">
                    <mxGeometry x="480" width="240" height="80" as="geometry"/>
                </mxCell>
                <mxCell id="5" value="" style="rounded=0;whiteSpace=wrap;html=1;fontSize=30;" parent="1" vertex="1">
                    <mxGeometry y="80" width="240" height="440" as="geometry"/>
                </mxCell>
                <mxCell id="6" value="Nuclear Bombs" style="rounded=0;whiteSpace=wrap;html=1;fontSize=30;" parent="1" vertex="1">
                    <mxGeometry x="240" y="80" width="240" height="440" as="geometry"/>
                </mxCell>
                <mxCell id="7" value="" style="rounded=0;whiteSpace=wrap;html=1;fontSize=30;" parent="1" vertex="1">
                    <mxGeometry x="480" y="80" width="240" height="440" as="geometry"/>
                </mxCell>
            </root>
        </mxGraphModel>
    </diagram>
</mxfile>